<?xml version="1.0" encoding="UTF-8"?>
<svg width="356px" height="35px" viewBox="0 0 356 35" version="1.1" xmlns="http://www.w3.org/2000/svg" xmlns:xlink="http://www.w3.org/1999/xlink">
    <!-- Generator: Sketch 46.2 (44496) - http://www.bohemiancoding.com/sketch -->
    <title>Group 8</title>
    <desc>Created with Sketch.</desc>
    <defs></defs>
    <g id="Mobile" stroke="none" stroke-width="1" fill="none" fill-rule="evenodd">
        <g id="Group-8">
            <path d="M55.7049744,26.4406899 C59.3460069,26.4406899 62.4094963,24.3314021 64.0165728,21.2176916 L60.8275305,19.5352835 C59.8984394,21.4939078 58.1406996,22.9503208 55.6296427,22.9503208 C52.2648265,22.9503208 49.7537696,20.3137111 49.7537696,17.0242266 C49.7537696,13.6594103 52.289937,11.0479112 55.7049744,11.0479112 C58.0402573,11.0479112 59.6473338,12.2029973 60.6768671,14.1114006 L63.7403565,12.1527762 C62.1332801,9.41572417 59.1451224,7.6077632 55.7049744,7.6077632 C50.4066444,7.6077632 46.2885111,11.5501225 46.2885111,17.0242266 C46.2885111,22.2472249 50.0299858,26.4406899 55.7049744,26.4406899 Z M70.6907213,26.4406899 C68.029001,26.4406899 64.6390742,24.3314021 64.6390742,19.911942 C64.6390742,15.4673713 67.9034482,13.3831941 70.7409425,13.3831941 C72.3731294,13.3831941 73.6537685,13.9858477 74.4824172,14.8647176 L74.4824172,13.6342998 L77.9225652,13.6342998 L77.9225652,26.1895842 L74.4824172,26.1895842 L74.4824172,24.7833924 C73.6537685,25.7627046 72.3229083,26.4406899 70.6907213,26.4406899 Z M71.3687067,23.2767582 C73.2268888,23.2767582 74.5828595,21.7450135 74.5828595,19.8868314 C74.5828595,18.0286493 73.2268888,16.5220152 71.3687067,16.5220152 C69.4603034,16.5220152 68.0038904,17.9533176 68.0038904,19.8868314 C68.0038904,21.8203452 69.4603034,23.2767582 71.3687067,23.2767582 Z M79.5745999,26.1895842 L83.0147479,26.1895842 L83.0147479,19.3343989 C83.0147479,17.2251111 84.0945024,16.3211306 85.4002519,16.3211306 C86.9319967,16.3211306 87.7104243,17.3004428 87.7104243,18.9828509 L87.7104243,26.1895842 L91.2007934,26.1895842 L91.2007934,18.5308607 C91.2007934,15.2915973 89.417943,13.3831941 86.4548958,13.3831941 C85.0235934,13.3831941 83.7931755,14.0109583 82.9896373,15.0404916 L82.9896373,13.6342998 L79.5745999,13.6342998 L79.5745999,26.1895842 Z M92.7272753,26.1895842 L96.1674232,26.1895842 L96.1674232,19.3343989 C96.1674232,17.2251111 97.2471777,16.3211306 98.5529273,16.3211306 C100.084672,16.3211306 100.8631,17.3004428 100.8631,18.9828509 L100.8631,26.1895842 L104.353469,26.1895842 L104.353469,18.5308607 C104.353469,15.2915973 102.570618,13.3831941 99.6075712,13.3831941 C98.1762688,13.3831941 96.9458509,14.0109583 96.1423127,15.0404916 L96.1423127,13.6342998 L92.7272753,13.6342998 L92.7272753,26.1895842 Z M111.554939,26.4406899 C108.893219,26.4406899 105.503292,24.3314021 105.503292,19.911942 C105.503292,15.4673713 108.767666,13.3831941 111.60516,13.3831941 C113.237347,13.3831941 114.517986,13.9858477 115.346635,14.8647176 L115.346635,13.6342998 L118.786783,13.6342998 L118.786783,26.1895842 L115.346635,26.1895842 L115.346635,24.7833924 C114.517986,25.7627046 113.187126,26.4406899 111.554939,26.4406899 Z M112.232925,23.2767582 C114.091107,23.2767582 115.447077,21.7450135 115.447077,19.8868314 C115.447077,18.0286493 114.091107,16.5220152 112.232925,16.5220152 C110.324521,16.5220152 108.868108,17.9533176 108.868108,19.8868314 C108.868108,21.8203452 110.324521,23.2767582 112.232925,23.2767582 Z M127.570219,26.4406899 C125.912922,26.4406899 124.556951,25.8129257 123.753413,24.8336135 L123.753413,26.1895842 L120.313265,26.1895842 L120.313265,7.85886889 L123.753413,7.85886889 L123.753413,15.0153811 C124.556951,14.0360689 125.83759,13.3831941 127.519998,13.3831941 C130.357493,13.3831941 133.596756,15.4673713 133.596756,19.911942 C133.596756,24.3314021 130.23194,26.4406899 127.570219,26.4406899 Z M126.867124,23.2767582 C128.775527,23.2767582 130.23194,21.8203452 130.23194,19.8868314 C130.23194,17.9533176 128.775527,16.5220152 126.867124,16.5220152 C125.008941,16.5220152 123.652971,18.0286493 123.652971,19.8868314 C123.652971,21.7450135 125.008941,23.2767582 126.867124,23.2767582 Z M134.646137,26.1895842 L138.086285,26.1895842 L138.086285,13.6342998 L134.646137,13.6342998 L134.646137,26.1895842 Z M134.294589,10.3197047 C134.294589,11.5501225 135.123238,12.3787713 136.353656,12.3787713 C137.584074,12.3787713 138.437833,11.5501225 138.437833,10.3197047 C138.437833,9.08928677 137.584074,8.23552743 136.353656,8.23552743 C135.123238,8.23552743 134.294589,9.08928677 134.294589,10.3197047 Z M144.634881,26.4406899 C148.250803,26.4909111 149.958321,24.0802965 149.958321,22.2472249 C149.958321,19.5352835 147.522596,18.7819664 145.413308,18.3550867 C143.530016,17.9784282 142.801809,17.7775436 142.801809,17.2251111 C142.801809,16.6726786 143.304021,16.1955778 144.433996,16.1955778 C145.563972,16.1955778 146.417731,16.7480103 146.744169,17.5766591 L149.782547,16.2960201 C148.878567,14.5382802 147.271491,13.3831941 144.459107,13.3831941 C141.345396,13.3329729 139.31144,15.2162656 139.31144,17.3255534 C139.31144,20.0123843 141.571391,20.7908119 143.831343,21.192581 C145.287756,21.4687973 146.518173,21.6696818 146.518173,22.3476672 C146.518173,22.9503208 145.91552,23.4776428 144.785544,23.4776428 C143.555126,23.4776428 142.600925,22.9252103 142.148934,21.7701241 L138.85945,23.0507631 C139.76343,25.2604932 141.596502,26.4406899 144.634881,26.4406899 Z M161.925537,26.4406899 C158.610942,26.4406899 156.401212,25.0344981 154.743914,23.1512054 L157.932957,20.6401485 C158.836937,22.1970038 160.26824,23.1009843 161.900427,23.1009843 C163.683277,23.1009843 164.637479,21.9458981 164.637479,20.6903696 C164.637479,19.1837355 162.804407,18.7066347 160.845783,18.103981 C158.384947,17.350664 155.647895,16.3964623 155.647895,12.8809827 C155.647895,9.94304612 158.209173,7.6077632 161.749763,7.6077632 C164.737921,7.6077632 166.44544,8.7377388 167.926963,10.2694835 L165.039248,12.454103 C164.285931,11.3241274 163.206176,10.7214738 161.774874,10.7214738 C160.142687,10.7214738 159.263817,11.6003437 159.263817,12.7554298 C159.263817,14.1616217 161.021557,14.6387225 162.980181,15.2915973 C165.466127,16.0951355 168.278511,17.2000006 168.278511,20.7154802 C168.278511,23.6283062 165.968339,26.4406899 161.925537,26.4406899 Z M168.223027,16.7228997 L168.223027,13.6342998 L170.357426,13.6342998 L170.357426,10.6963632 L173.797574,8.81307051 L173.797574,13.6342998 L176.157967,13.6342998 L176.157967,16.7228997 L173.797574,16.7228997 L173.797574,20.7154802 C173.797574,22.6741046 174.048679,22.9754314 176.157967,22.9754314 L176.157967,26.1895842 L175.655756,26.1895842 C171.663175,26.1895842 170.357426,24.8336135 170.357426,20.7405908 L170.357426,16.7228997 L168.223027,16.7228997 Z M177.558896,26.1895842 L180.999044,26.1895842 L180.999044,20.26349 C180.999044,17.9282071 181.802582,16.9740054 183.635654,16.9740054 L185.69472,16.9740054 L185.69472,13.6342998 L184.439192,13.6342998 C182.731673,13.6342998 181.601698,14.3876168 180.973933,15.6933664 L180.973933,13.6342998 L177.558896,13.6342998 L177.558896,26.1895842 Z M192.193095,26.4406899 C189.531375,26.4406899 186.141448,24.3314021 186.141448,19.911942 C186.141448,15.4673713 189.405822,13.3831941 192.243316,13.3831941 C193.875503,13.3831941 195.156142,13.9858477 195.984791,14.8647176 L195.984791,13.6342998 L199.424939,13.6342998 L199.424939,26.1895842 L195.984791,26.1895842 L195.984791,24.7833924 C195.156142,25.7627046 193.825282,26.4406899 192.193095,26.4406899 Z M192.87108,23.2767582 C194.729262,23.2767582 196.085233,21.7450135 196.085233,19.8868314 C196.085233,18.0286493 194.729262,16.5220152 192.87108,16.5220152 C190.962677,16.5220152 189.506264,17.9533176 189.506264,19.8868314 C189.506264,21.8203452 190.962677,23.2767582 192.87108,23.2767582 Z M200.700315,16.7228997 L202.834713,16.7228997 L202.834713,20.7405908 C202.834713,24.8336135 204.140463,26.1895842 208.133044,26.1895842 L208.635255,26.1895842 L208.635255,22.9754314 C206.525967,22.9754314 206.274861,22.6741046 206.274861,20.7154802 L206.274861,16.7228997 L208.635255,16.7228997 L208.635255,13.6342998 L206.274861,13.6342998 L206.274861,8.81307051 L202.834713,10.6963632 L202.834713,13.6342998 L200.700315,13.6342998 L200.700315,16.7228997 Z M215.786504,26.4406899 C211.869256,26.4406899 209.157314,23.5278639 209.157314,19.911942 C209.157314,16.2960201 212.07014,13.3831941 215.686062,13.3831941 C219.527979,13.3831941 222.164589,16.2709095 222.164589,19.8868314 L222.164589,21.1423599 L212.471909,21.1423599 C212.873678,22.5234412 214.003654,23.4274217 215.811615,23.4274217 C217.192696,23.4274217 218.347782,22.6741046 218.900215,21.4687973 L221.637267,23.1009843 C220.557512,25.0596086 218.573777,26.4406899 215.786504,26.4406899 Z M215.711173,16.3964623 C214.25476,16.3964623 213.149895,17.2000006 212.622573,18.3801973 L218.69933,18.3801973 C218.24734,17.0744477 217.167586,16.3964623 215.711173,16.3964623 Z M229.014511,26.4406899 C226.352791,26.4406899 222.962864,24.3314021 222.962864,19.911942 C222.962864,15.4673713 226.227238,13.3831941 229.064732,13.3831941 C230.696919,13.3831941 231.977558,14.0611794 232.806207,14.9902705 L232.806207,13.6342998 L236.246355,13.6342998 L236.246355,25.8380363 C236.246355,29.3786265 234.011515,32.2412314 229.767828,32.2412314 C226.578786,32.2412314 224.243503,30.5839338 223.23908,28.6253094 L226.277459,26.9177907 C226.930334,28.2235403 228.08542,29.0521891 229.767828,29.0521891 C231.626011,29.0521891 232.806207,27.5957761 232.806207,25.9635891 L232.806207,24.7833924 C231.977558,25.7627046 230.646698,26.4406899 229.014511,26.4406899 Z M229.692497,23.2767582 C231.550679,23.2767582 232.90665,21.7450135 232.90665,19.8868314 C232.90665,18.0286493 231.550679,16.5220152 229.692497,16.5220152 C227.784093,16.5220152 226.32768,17.9533176 226.32768,19.8868314 C226.32768,21.8203452 227.784093,23.2767582 229.692497,23.2767582 Z M237.647284,26.1895842 L241.087432,26.1895842 L241.087432,13.6342998 L237.647284,13.6342998 L237.647284,26.1895842 Z M237.295736,10.3197047 C237.295736,11.5501225 238.124385,12.3787713 239.354803,12.3787713 C240.585221,12.3787713 241.43898,11.5501225 241.43898,10.3197047 C241.43898,9.08928677 240.585221,8.23552743 239.354803,8.23552743 C238.124385,8.23552743 237.295736,9.08928677 237.295736,10.3197047 Z M248.740893,26.4406899 C251.603498,26.4406899 253.813228,24.808503 254.79254,22.47322 L251.729051,21.1674705 C251.25195,22.3476672 250.096864,23.176316 248.766004,23.176316 C246.958043,23.176316 245.551851,21.719903 245.551851,19.911942 C245.551851,18.103981 246.958043,16.647568 248.766004,16.647568 C250.096864,16.647568 251.25195,17.4762168 251.729051,18.6564136 L254.79254,17.350664 C253.813228,15.0153811 251.603498,13.3831941 248.740893,13.3831941 C245.124971,13.3831941 242.237256,16.2960201 242.237256,19.911942 C242.237256,23.5278639 245.124971,26.4406899 248.740893,26.4406899 Z M265.880886,26.1895842 L259.753907,7.85886889 L263.369829,7.85886889 L267.638626,20.8661436 L271.907423,7.85886889 L275.523344,7.85886889 L269.396366,26.1895842 L265.880886,26.1895842 Z M280.012874,26.4406899 C276.095625,26.4406899 273.383683,23.5278639 273.383683,19.911942 C273.383683,16.2960201 276.296509,13.3831941 279.912431,13.3831941 C283.754348,13.3831941 286.390958,16.2709095 286.390958,19.8868314 L286.390958,21.1423599 L276.698278,21.1423599 C277.100048,22.5234412 278.230023,23.4274217 280.037984,23.4274217 C281.419065,23.4274217 282.574152,22.6741046 283.126584,21.4687973 L285.863636,23.1009843 C284.783882,25.0596086 282.800147,26.4406899 280.012874,26.4406899 Z M279.937542,16.3964623 C278.481129,16.3964623 277.376264,17.2000006 276.848942,18.3801973 L282.9257,18.3801973 C282.473709,17.0744477 281.393955,16.3964623 279.937542,16.3964623 Z M287.565892,26.1895842 L291.00604,26.1895842 L291.00604,19.3343989 C291.00604,17.2251111 292.085794,16.3211306 293.391544,16.3211306 C294.923289,16.3211306 295.701716,17.3004428 295.701716,18.9828509 L295.701716,26.1895842 L299.192085,26.1895842 L299.192085,18.5308607 C299.192085,15.2915973 297.409235,13.3831941 294.446188,13.3831941 C293.014885,13.3831941 291.784468,14.0109583 290.980929,15.0404916 L290.980929,13.6342998 L287.565892,13.6342998 L287.565892,26.1895842 Z M299.839697,16.7228997 L301.974096,16.7228997 L301.974096,20.7405908 C301.974096,24.8336135 303.279845,26.1895842 307.272426,26.1895842 L307.774637,26.1895842 L307.774637,22.9754314 C305.665349,22.9754314 305.414244,22.6741046 305.414244,20.7154802 L305.414244,16.7228997 L307.774637,16.7228997 L307.774637,13.6342998 L305.414244,13.6342998 L305.414244,8.81307051 L301.974096,10.6963632 L301.974096,13.6342998 L299.839697,13.6342998 L299.839697,16.7228997 Z M313.921464,26.4406899 C315.352766,26.4406899 316.558074,25.8129257 317.386722,24.808503 L317.386722,26.1895842 L320.80176,26.1895842 L320.80176,13.6342998 L317.361612,13.6342998 L317.361612,20.4894851 C317.361612,22.5987729 316.281857,23.5027534 314.976108,23.5027534 C313.444363,23.5027534 312.665935,22.5234412 312.665935,20.8410331 L312.665935,13.6342998 L309.175566,13.6342998 L309.175566,21.2930233 C309.175566,24.5322867 310.958417,26.4406899 313.921464,26.4406899 Z M322.453795,26.1895842 L325.893942,26.1895842 L325.893942,20.26349 C325.893942,17.9282071 326.697481,16.9740054 328.530552,16.9740054 L330.589619,16.9740054 L330.589619,13.6342998 L329.33409,13.6342998 C327.626572,13.6342998 326.496596,14.3876168 325.868832,15.6933664 L325.868832,13.6342998 L322.453795,13.6342998 L322.453795,26.1895842 Z M337.665537,26.4406899 C333.748288,26.4406899 331.036346,23.5278639 331.036346,19.911942 C331.036346,16.2960201 333.949172,13.3831941 337.565094,13.3831941 C341.407011,13.3831941 344.043621,16.2709095 344.043621,19.8868314 L344.043621,21.1423599 L334.350941,21.1423599 C334.752711,22.5234412 335.882686,23.4274217 337.690647,23.4274217 C339.071728,23.4274217 340.226815,22.6741046 340.779247,21.4687973 L343.516299,23.1009843 C342.436545,25.0596086 340.45281,26.4406899 337.665537,26.4406899 Z M337.590205,16.3964623 C336.133792,16.3964623 335.028927,17.2000006 334.501605,18.3801973 L340.578363,18.3801973 C340.126372,17.0744477 339.046618,16.3964623 337.590205,16.3964623 Z M350.240669,26.4406899 C353.856591,26.4909111 355.564109,24.0802965 355.564109,22.2472249 C355.564109,19.5352835 353.128384,18.7819664 351.019096,18.3550867 C349.135804,17.9784282 348.407597,17.7775436 348.407597,17.2251111 C348.407597,16.6726786 348.909809,16.1955778 350.039784,16.1955778 C351.16976,16.1955778 352.023519,16.7480103 352.349957,17.5766591 L355.388335,16.2960201 C354.484355,14.5382802 352.877279,13.3831941 350.064895,13.3831941 C346.951184,13.3329729 344.917228,15.2162656 344.917228,17.3255534 C344.917228,20.0123843 347.177179,20.7908119 349.437131,21.192581 C350.893544,21.4687973 352.123961,21.6696818 352.123961,22.3476672 C352.123961,22.9503208 351.521308,23.4776428 350.391332,23.4776428 C349.160914,23.4776428 348.206713,22.9252103 347.754722,21.7701241 L344.465238,23.0507631 C345.369218,25.2604932 347.20229,26.4406899 350.240669,26.4406899 Z" id="Cannabis-Strategic-Ventures" fill="#322F31"></path>
            <g id="Group-3">
                <path d="M21.8273839,0 L34.4343246,12.6069406 L34.4343246,0 L21.8273839,0 Z M18.4127985,0 L18.4127985,11.6064019 L34.4343246,27.6279279 L34.4343246,15.9885037 L18.4458209,0 L18.4127985,0 Z M15.9885037,0 L0,15.9885037 L0,27.6279279 L16.021526,11.6064019 L16.021526,0 L15.9885037,0 Z M0,0 L0,12.6069406 L12.6069406,0 L0,0 Z M18.4127985,25.5733313 C22.7804768,26.1593829 26.1605216,29.9083668 26.1605216,34.4343246 L26.1605216,34.4343246 L34.4343246,34.4343246 L34.4343246,31.0098705 L18.4127985,14.9883444 L18.4127985,25.5733313 Z M0,31.0094909 L0,34.4343246 L8.27380298,34.4343246 C8.27380298,29.9083668 11.6538477,26.1593829 16.021526,25.5733313 L16.021526,25.5733313 L16.021526,14.9883444 L0,31.0094909 Z M23.769249,34.4343246 C23.769249,30.8216052 20.8298816,27.8822378 17.2171623,27.8822378 C13.6044429,27.8822378 10.6650755,30.8216052 10.6650755,34.4343246 L23.769249,34.4343246 Z" id="Fill-2" fill="#37ECBA"></path>
                <path d="M21.8273839,0 L34.4343246,12.6069406 L34.4343246,0 L21.8273839,0 Z M18.4127985,0 L18.4127985,11.6064019 L34.4343246,27.6279279 L34.4343246,15.9885037 L18.4458209,0 L18.4127985,0 Z M18.4127985,25.5733313 C22.7804768,26.1593829 26.1605216,29.9083668 26.1605216,34.4343246 L26.1605216,34.4343246 L34.4343246,34.4343246 L34.4343246,31.0098705 L18.4127985,14.9883444 L18.4127985,25.5733313 Z M23.769249,34.4343246 C23.769249,30.8216052 20.8327206,27.8822378 17.2200012,27.8822378 L17.2200012,34.4343246 L23.769249,34.4343246 Z" id="Fill-2-Copy" fill="#224DFF"></path>
            </g>
        </g>
    </g>
</svg>