<?xml version="1.0" encoding="UTF-8"?>
<svg width="463px" height="45px" viewBox="0 0 463 45" version="1.1" xmlns="http://www.w3.org/2000/svg" xmlns:xlink="http://www.w3.org/1999/xlink">
    <!-- Generator: Sketch 46.2 (44496) - http://www.bohemiancoding.com/sketch -->
    <title>Group 8</title>
    <desc>Created with Sketch.</desc>
    <defs></defs>
    <g id="Mobile" stroke="none" stroke-width="1" fill="none" fill-rule="evenodd">
        <g id="Home" transform="translate(-130.000000, -8282.000000)">
            <g id="Group-12" transform="translate(0.000000, 7315.000000)">
                <g id="Group-24" transform="translate(0.000000, 932.000000)">
                    <g id="Group-8" transform="translate(130.000000, 35.000000)">
                        <path d="M72.4164641,33.6728966 C77.1498062,33.6728966 81.1323423,30.9308225 83.2215415,26.882999 L79.0757868,24.6958685 C77.8679684,27.2420801 75.5829067,29.1354169 72.3185329,29.1354169 C67.9442719,29.1354169 64.6798981,25.7078244 64.6798981,21.4314946 C64.6798981,17.0572337 67.9769157,13.6622849 72.4164641,13.6622849 C75.4523318,13.6622849 77.541531,15.1638968 78.8799243,17.644821 L82.8624604,15.0986094 C80.7732612,11.5404419 76.8886563,9.1900927 72.4164641,9.1900927 C65.5286353,9.1900927 60.1750622,14.3151596 60.1750622,21.4314946 C60.1750622,28.2213922 65.0389792,33.6728966 72.4164641,33.6728966 Z M91.8979343,33.6728966 C88.4376981,33.6728966 84.0307934,30.9308225 84.0307934,25.1855246 C84.0307934,19.4075828 88.2744794,16.6981526 91.9632218,16.6981526 C94.0850648,16.6981526 95.7498955,17.4816023 96.8271389,18.6241331 L96.8271389,17.0245899 L101.299331,17.0245899 L101.299331,33.3464592 L96.8271389,33.3464592 L96.8271389,31.5184098 C95.7498955,32.7915156 94.0197773,33.6728966 91.8979343,33.6728966 Z M92.7793153,29.5597855 C95.1949519,29.5597855 96.9577138,27.5685175 96.9577138,25.1528808 C96.9577138,22.7372442 95.1949519,20.7786199 92.7793153,20.7786199 C90.2983912,20.7786199 88.4050543,22.639313 88.4050543,25.1528808 C88.4050543,27.6664487 90.2983912,29.5597855 92.7793153,29.5597855 Z M103.446976,33.3464592 L107.919168,33.3464592 L107.919168,24.4347186 C107.919168,21.6926445 109.322849,20.51747 111.020323,20.51747 C113.011592,20.51747 114.023547,21.7905758 114.023547,23.9777062 L114.023547,33.3464592 L118.561027,33.3464592 L118.561027,23.3901189 C118.561027,19.1790767 116.243322,16.6981526 112.39136,16.6981526 C110.530667,16.6981526 108.931124,17.514246 107.886525,18.8526393 L107.886525,17.0245899 L103.446976,17.0245899 L103.446976,33.3464592 Z M120.545453,33.3464592 L125.017646,33.3464592 L125.017646,24.4347186 C125.017646,21.6926445 126.421326,20.51747 128.118801,20.51747 C130.110069,20.51747 131.122025,21.7905758 131.122025,23.9777062 L131.122025,33.3464592 L135.659504,33.3464592 L135.659504,23.3901189 C135.659504,19.1790767 133.341799,16.6981526 129.489838,16.6981526 C127.629145,16.6981526 126.029602,17.514246 124.985002,18.8526393 L124.985002,17.0245899 L120.545453,17.0245899 L120.545453,33.3464592 Z M145.021416,33.6728966 C141.561179,33.6728966 137.154275,30.9308225 137.154275,25.1855246 C137.154275,19.4075828 141.397961,16.6981526 145.086703,16.6981526 C147.208546,16.6981526 148.873377,17.4816023 149.95062,18.6241331 L149.95062,17.0245899 L154.422812,17.0245899 L154.422812,33.3464592 L149.95062,33.3464592 L149.95062,31.5184098 C148.873377,32.7915156 147.143259,33.6728966 145.021416,33.6728966 Z M145.902797,29.5597855 C148.318433,29.5597855 150.081195,27.5685175 150.081195,25.1528808 C150.081195,22.7372442 148.318433,20.7786199 145.902797,20.7786199 C143.421873,20.7786199 141.528536,22.639313 141.528536,25.1528808 C141.528536,27.6664487 143.421873,29.5597855 145.902797,29.5597855 Z M165.841279,33.6728966 C163.686792,33.6728966 161.924031,32.8568031 160.879431,31.5836973 L160.879431,33.3464592 L156.407239,33.3464592 L156.407239,9.51653009 L160.879431,9.51653009 L160.879431,18.8199956 C161.924031,17.5468898 163.588861,16.6981526 165.775992,16.6981526 C169.464734,16.6981526 173.675776,19.4075828 173.675776,25.1855246 C173.675776,30.9308225 169.301515,33.6728966 165.841279,33.6728966 Z M164.927255,29.5597855 C167.408179,29.5597855 169.301515,27.6664487 169.301515,25.1528808 C169.301515,22.639313 167.408179,20.7786199 164.927255,20.7786199 C162.511618,20.7786199 160.748856,22.7372442 160.748856,25.1528808 C160.748856,27.5685175 162.511618,29.5597855 164.927255,29.5597855 Z M175.039972,33.3464592 L179.512164,33.3464592 L179.512164,17.0245899 L175.039972,17.0245899 L175.039972,33.3464592 Z M174.582959,12.7156165 C174.582959,14.3151596 175.660203,15.392403 177.259746,15.392403 C178.859289,15.392403 179.969176,14.3151596 179.969176,12.7156165 C179.969176,11.1160733 178.859289,10.0061862 177.259746,10.0061862 C175.660203,10.0061862 174.582959,11.1160733 174.582959,12.7156165 Z M188.025338,33.6728966 C192.726036,33.738184 194.945811,30.6043851 194.945811,28.2213922 C194.945811,24.6958685 191.779368,23.7165563 189.037294,23.1616128 C186.589014,22.6719567 185.642345,22.4108068 185.642345,21.6926445 C185.642345,20.9744823 186.29522,20.3542513 187.764188,20.3542513 C189.233156,20.3542513 190.343044,21.0724135 190.767412,22.1496569 L194.717304,20.4848262 C193.54213,18.1997645 191.452931,16.6981526 187.796832,16.6981526 C183.749008,16.6328651 181.104866,19.0811455 181.104866,21.8232195 C181.104866,25.3160995 184.042802,26.3280554 186.980738,26.8503552 C188.874075,27.2094363 190.473618,27.4705863 190.473618,28.3519672 C190.473618,29.1354169 189.690169,29.8209354 188.221201,29.8209354 C186.621657,29.8209354 185.381195,29.1027732 184.793608,27.6011612 L180.517278,29.2659919 C181.692453,32.1386409 184.075446,33.6728966 188.025338,33.6728966 Z M210.503191,33.6728966 C206.194217,33.6728966 203.321568,31.8448472 201.167081,29.3965668 L205.312836,26.132193 C206.488011,28.1561048 208.348704,29.3312793 210.470547,29.3312793 C212.788252,29.3312793 214.028714,27.8296674 214.028714,26.1974805 C214.028714,24.2388561 211.645721,23.6186251 209.09951,22.8351754 C205.900424,21.8558632 202.342256,20.6154012 202.342256,16.0452778 C202.342256,12.2259604 205.671917,9.1900927 210.274684,9.1900927 C214.159289,9.1900927 216.379064,10.6590609 218.305044,12.650329 L214.551014,15.4903342 C213.571702,14.021366 212.168021,13.2379163 210.307328,13.2379163 C208.185485,13.2379163 207.042954,14.3804471 207.042954,15.8820591 C207.042954,17.7101084 209.328016,18.3303395 211.874228,19.1790767 C215.105958,20.2236763 218.762056,21.6600008 218.762056,26.2301242 C218.762056,30.0167979 215.758833,33.6728966 210.503191,33.6728966 Z M218.689927,21.0397698 L218.689927,17.0245899 L221.464645,17.0245899 L221.464645,13.2052725 L225.936837,10.7569922 L225.936837,17.0245899 L229.005349,17.0245899 L229.005349,21.0397698 L225.936837,21.0397698 L225.936837,26.2301242 C225.936837,28.7763358 226.263275,29.1680607 229.005349,29.1680607 L229.005349,33.3464592 L228.352474,33.3464592 C223.16212,33.3464592 221.464645,31.5836973 221.464645,26.2627679 L221.464645,21.0397698 L218.689927,21.0397698 Z M230.826556,33.3464592 L235.298749,33.3464592 L235.298749,25.6425369 C235.298749,22.6066692 236.343348,21.3662072 238.726341,21.3662072 L241.403128,21.3662072 L241.403128,17.0245899 L239.770941,17.0245899 C237.551167,17.0245899 236.082198,18.0039021 235.266105,19.7013765 L235.266105,17.0245899 L230.826556,17.0245899 L230.826556,33.3464592 Z M249.851014,33.6728966 C246.390778,33.6728966 241.983873,30.9308225 241.983873,25.1855246 C241.983873,19.4075828 246.227559,16.6981526 249.916302,16.6981526 C252.038145,16.6981526 253.702975,17.4816023 254.780219,18.6241331 L254.780219,17.0245899 L259.252411,17.0245899 L259.252411,33.3464592 L254.780219,33.3464592 L254.780219,31.5184098 C253.702975,32.7915156 251.972857,33.6728966 249.851014,33.6728966 Z M250.732395,29.5597855 C253.148032,29.5597855 254.910794,27.5685175 254.910794,25.1528808 C254.910794,22.7372442 253.148032,20.7786199 250.732395,20.7786199 C248.251471,20.7786199 246.358134,22.639313 246.358134,25.1528808 C246.358134,27.6664487 248.251471,29.5597855 250.732395,29.5597855 Z M260.9104,21.0397698 L263.685118,21.0397698 L263.685118,26.2627679 C263.685118,31.5836973 265.382592,33.3464592 270.572947,33.3464592 L271.225821,33.3464592 L271.225821,29.1680607 C268.483747,29.1680607 268.15731,28.7763358 268.15731,26.2301242 L268.15731,21.0397698 L271.225821,21.0397698 L271.225821,17.0245899 L268.15731,17.0245899 L268.15731,10.7569922 L263.685118,13.2052725 L263.685118,17.0245899 L260.9104,17.0245899 L260.9104,21.0397698 Z M280.522445,33.6728966 C275.430022,33.6728966 271.904498,29.8862229 271.904498,25.1855246 C271.904498,20.4848262 275.691172,16.6981526 280.39187,16.6981526 C285.386362,16.6981526 288.813955,20.4521825 288.813955,25.1528808 L288.813955,26.7850677 L276.213472,26.7850677 C276.735772,28.5804734 278.20474,29.7556479 280.555089,29.7556479 C282.350495,29.7556479 283.852107,28.7763358 284.570269,27.2094363 L288.128436,29.3312793 C286.724756,31.8774909 284.1459,33.6728966 280.522445,33.6728966 Z M280.424514,20.6154012 C278.531177,20.6154012 277.094853,21.6600008 276.409334,23.1942565 L284.309119,23.1942565 C283.721532,21.4967821 282.317851,20.6154012 280.424514,20.6154012 Z M297.718854,33.6728966 C294.258618,33.6728966 289.851713,30.9308225 289.851713,25.1855246 C289.851713,19.4075828 294.095399,16.6981526 297.784141,16.6981526 C299.905984,16.6981526 301.570815,17.5795335 302.648058,18.7873518 L302.648058,17.0245899 L307.12025,17.0245899 L307.12025,32.8894468 C307.12025,37.492214 304.214958,41.2136002 298.698166,41.2136002 C294.552411,41.2136002 291.516543,39.0591134 290.210794,36.5129018 L294.160686,34.2931276 C295.009424,35.990602 296.511035,37.0678454 298.698166,37.0678454 C301.113803,37.0678454 302.648058,35.1745085 302.648058,33.0526655 L302.648058,31.5184098 C301.570815,32.7915156 299.840697,33.6728966 297.718854,33.6728966 Z M298.600235,29.5597855 C301.015871,29.5597855 302.778633,27.5685175 302.778633,25.1528808 C302.778633,22.7372442 301.015871,20.7786199 298.600235,20.7786199 C296.119311,20.7786199 294.225974,22.639313 294.225974,25.1528808 C294.225974,27.6664487 296.119311,29.5597855 298.600235,29.5597855 Z M308.941458,33.3464592 L313.41365,33.3464592 L313.41365,17.0245899 L308.941458,17.0245899 L308.941458,33.3464592 Z M308.484446,12.7156165 C308.484446,14.3151596 309.561689,15.392403 311.161232,15.392403 C312.760776,15.392403 313.870663,14.3151596 313.870663,12.7156165 C313.870663,11.1160733 312.760776,10.0061862 311.161232,10.0061862 C309.561689,10.0061862 308.484446,11.1160733 308.484446,12.7156165 Z M323.363149,33.6728966 C327.084535,33.6728966 329.957184,31.5510536 331.23029,28.5151859 L327.247754,26.8177115 C326.627523,28.3519672 325.125911,29.4292106 323.395793,29.4292106 C321.045444,29.4292106 319.217394,27.5358737 319.217394,25.1855246 C319.217394,22.8351754 321.045444,20.9418386 323.395793,20.9418386 C325.125911,20.9418386 326.627523,22.0190819 327.247754,23.5533376 L331.23029,21.8558632 C329.957184,18.8199956 327.084535,16.6981526 323.363149,16.6981526 C318.662451,16.6981526 314.908421,20.4848262 314.908421,25.1855246 C314.908421,29.8862229 318.662451,33.6728966 323.363149,33.6728966 Z M345.645139,33.3464592 L337.680067,9.51653009 L342.380765,9.51653009 L347.930201,26.4259866 L353.479636,9.51653009 L358.180335,9.51653009 L350.215262,33.3464592 L345.645139,33.3464592 Z M364.016722,33.6728966 C358.924299,33.6728966 355.398775,29.8862229 355.398775,25.1855246 C355.398775,20.4848262 359.185449,16.6981526 363.886147,16.6981526 C368.880639,16.6981526 372.308232,20.4521825 372.308232,25.1528808 L372.308232,26.7850677 L359.707749,26.7850677 C360.230049,28.5804734 361.699017,29.7556479 364.049366,29.7556479 C365.844772,29.7556479 367.346384,28.7763358 368.064546,27.2094363 L371.622713,29.3312793 C370.219033,31.8774909 367.640177,33.6728966 364.016722,33.6728966 Z M363.918791,20.6154012 C362.025454,20.6154012 360.58913,21.6600008 359.903611,23.1942565 L367.803396,23.1942565 C367.215809,21.4967821 365.812128,20.6154012 363.918791,20.6154012 Z M373.835646,33.3464592 L378.307838,33.3464592 L378.307838,24.4347186 C378.307838,21.6926445 379.711519,20.51747 381.408993,20.51747 C383.400261,20.51747 384.412217,21.7905758 384.412217,23.9777062 L384.412217,33.3464592 L388.949697,33.3464592 L388.949697,23.3901189 C388.949697,19.1790767 386.631991,16.6981526 382.78003,16.6981526 C380.919337,16.6981526 379.319794,17.514246 378.275194,18.8526393 L378.275194,17.0245899 L373.835646,17.0245899 L373.835646,33.3464592 Z M389.791592,21.0397698 L392.56631,21.0397698 L392.56631,26.2627679 C392.56631,31.5836973 394.263785,33.3464592 399.454139,33.3464592 L400.107014,33.3464592 L400.107014,29.1680607 C397.36494,29.1680607 397.038502,28.7763358 397.038502,26.2301242 L397.038502,21.0397698 L400.107014,21.0397698 L400.107014,17.0245899 L397.038502,17.0245899 L397.038502,10.7569922 L392.56631,13.2052725 L392.56631,17.0245899 L389.791592,17.0245899 L389.791592,21.0397698 Z M408.097888,33.6728966 C409.958581,33.6728966 411.525481,32.8568031 412.602724,31.5510536 L412.602724,33.3464592 L417.042272,33.3464592 L417.042272,17.0245899 L412.57008,17.0245899 L412.57008,25.9363305 C412.57008,28.6784046 411.166399,29.8535792 409.468925,29.8535792 C407.477657,29.8535792 406.465701,28.5804734 406.465701,26.3933429 L406.465701,17.0245899 L401.928221,17.0245899 L401.928221,26.9809302 C401.928221,31.1919724 404.245927,33.6728966 408.097888,33.6728966 Z M419.189917,33.3464592 L423.66211,33.3464592 L423.66211,25.6425369 C423.66211,22.6066692 424.706709,21.3662072 427.089702,21.3662072 L429.766489,21.3662072 L429.766489,17.0245899 L428.134302,17.0245899 C425.914528,17.0245899 424.445559,18.0039021 423.629466,19.7013765 L423.629466,17.0245899 L419.189917,17.0245899 L419.189917,33.3464592 Z M438.965181,33.6728966 C433.872758,33.6728966 430.347234,29.8862229 430.347234,25.1855246 C430.347234,20.4848262 434.133908,16.6981526 438.834606,16.6981526 C443.829098,16.6981526 447.256691,20.4521825 447.256691,25.1528808 L447.256691,26.7850677 L434.656208,26.7850677 C435.178508,28.5804734 436.647476,29.7556479 438.997825,29.7556479 C440.793231,29.7556479 442.294843,28.7763358 443.013005,27.2094363 L446.571172,29.3312793 C445.167492,31.8774909 442.588636,33.6728966 438.965181,33.6728966 Z M438.86725,20.6154012 C436.973913,20.6154012 435.537589,21.6600008 434.85207,23.1942565 L442.751855,23.1942565 C442.164268,21.4967821 440.760587,20.6154012 438.86725,20.6154012 Z M455.312853,33.6728966 C460.013551,33.738184 462.233325,30.6043851 462.233325,28.2213922 C462.233325,24.6958685 459.066883,23.7165563 456.324809,23.1616128 C453.876528,22.6719567 452.92986,22.4108068 452.92986,21.6926445 C452.92986,20.9744823 453.582735,20.3542513 455.051703,20.3542513 C456.520671,20.3542513 457.630558,21.0724135 458.054927,22.1496569 L462.004819,20.4848262 C460.829645,18.1997645 458.740445,16.6981526 455.084347,16.6981526 C451.036523,16.6328651 448.39238,19.0811455 448.39238,21.8232195 C448.39238,25.3160995 451.330317,26.3280554 454.268253,26.8503552 C456.16159,27.2094363 457.761133,27.4705863 457.761133,28.3519672 C457.761133,29.1354169 456.977683,29.8209354 455.508715,29.8209354 C453.909172,29.8209354 452.66871,29.1027732 452.081123,27.6011612 L447.804793,29.2659919 C448.979967,32.1386409 451.36296,33.6728966 455.312853,33.6728966 Z" id="Cannabis-Strategic-Ventures" fill="#322F31"></path>
                        <g id="Group-3">
                            <path d="M28.375598,0 L44.7646203,16.3890222 L44.7646203,0 L28.375598,0 Z M23.9366372,0 L23.9366372,15.0883219 L44.7646203,35.9163049 L44.7646203,20.785054 L23.9795663,0 L23.9366372,0 Z M20.785054,0 L0,20.785054 L0,35.9163049 L20.827983,15.0883219 L20.827983,0 L20.785054,0 Z M0,0 L0,16.3890222 L16.3890222,0 L0,0 Z M23.9366372,33.2453295 C29.6146188,34.0071965 34.0086768,38.8808754 34.0086768,44.7646203 L34.0086768,44.7646203 L44.7646203,44.7646203 L44.7646203,40.3128301 L23.9366372,19.4848471 L23.9366372,33.2453295 Z M0,40.3123367 L0,44.7646203 L10.7559435,44.7646203 C10.7559435,38.8808754 15.1500015,34.0071965 20.827983,33.2453295 L20.827983,33.2453295 L20.827983,19.4848471 L0,40.3123367 Z M30.9000226,44.7646203 C30.9000226,40.0680853 27.0788451,36.2469078 22.3823101,36.2469078 C17.6857751,36.2469078 13.8645977,40.0680853 13.8645977,44.7646203 L30.9000226,44.7646203 Z" id="Fill-2" fill="#37ECBA"></path>
                            <path d="M28.375598,0 L44.7646203,16.3890222 L44.7646203,0 L28.375598,0 Z M23.9366372,0 L23.9366372,15.0883219 L44.7646203,35.9163049 L44.7646203,20.785054 L23.9795663,0 L23.9366372,0 Z M23.9366372,33.2453295 C29.6146188,34.0071965 34.0086768,38.8808754 34.0086768,44.7646203 L34.0086768,44.7646203 L44.7646203,44.7646203 L44.7646203,40.3128301 L23.9366372,19.4848471 L23.9366372,33.2453295 Z M30.9000226,44.7646203 C30.9000226,40.0680853 27.0825358,36.2469078 22.3860008,36.2469078 L22.3860008,44.7646203 L30.9000226,44.7646203 Z" id="Fill-2-Copy" fill="#224DFF"></path>
                        </g>
                    </g>
                </g>
            </g>
        </g>
    </g>
</svg>