<?xml version="1.0" encoding="UTF-8"?>
<svg width="21px" height="20px" viewBox="0 0 21 20" version="1.1" xmlns="http://www.w3.org/2000/svg" xmlns:xlink="http://www.w3.org/1999/xlink">
    <!-- Generator: Sketch 46.2 (44496) - http://www.bohemiancoding.com/sketch -->
    <title></title>
    <desc>Created with Sketch.</desc>
    <defs></defs>
    <g id="Mobile" stroke="none" stroke-width="1" fill="none" fill-rule="evenodd">
        <g transform="translate(-308.000000, -7023.000000)" id="Group-17" fill="#C2C1C1">
            <g transform="translate(238.000000, 7014.000000)">
                <g id="Group-14-Copy-5" transform="translate(58.000000, 0.000000)">
                    <g id="Group-13">
                        <g id="Group-31">
                            <path d="M16.9750012,29.0000005 L12.9062509,29.0000005 L12.9062509,15.9187496 L16.9750012,15.9187496 L16.9750012,29.0000005 Z M14.962501,14.1249995 C14.3208311,14.1249995 13.7666699,13.8916684 13.3000009,13.4249994 C12.8333319,12.9583304 12.6000009,12.4041692 12.6000009,11.7624993 C12.6000009,11.1208294 12.8333319,10.5666682 13.3000009,10.0999992 C13.7666699,9.63333016 14.3208311,9.39999914 14.962501,9.39999914 C15.6041709,9.39999914 16.1583321,9.63333016 16.6250011,10.0999992 C17.0916702,10.5666682 17.3250012,11.1208294 17.3250012,11.7624993 C17.3250012,12.4041692 17.0916702,12.9583304 16.6250011,13.4249994 C16.1583321,13.8916684 15.6041709,14.1249995 14.962501,14.1249995 Z M32.2000022,29.0000005 L28.1312519,29.0000005 L28.1312519,22.6125 C28.1312519,21.5624947 28.0437528,20.8041689 27.8687519,20.3374999 C27.5479169,19.5499959 26.9208398,19.1562498 25.9875018,19.1562498 C25.0541637,19.1562498 24.3979202,19.5062463 24.0187516,20.2062499 C23.7270835,20.7312525 23.5812516,21.5041615 23.5812516,22.525 L23.5812516,29.0000005 L19.5562513,29.0000005 L19.5562513,15.9187496 L23.4500016,15.9187496 L23.4500016,17.7124997 L23.4937516,17.7124997 C23.7854197,17.1291634 24.2520818,16.6479182 24.8937517,16.2687496 C25.5937552,15.8020806 26.4104138,15.5687496 27.3437519,15.5687496 C29.2395948,15.5687496 30.566665,16.1666603 31.3250021,17.3624997 C31.9083384,18.3250046 32.2000022,19.8124898 32.2000022,21.825 L32.2000022,29.0000005 Z" id=""></path>
                        </g>
                    </g>
                </g>
            </g>
        </g>
    </g>
</svg>