<?xml version="1.0" encoding="UTF-8"?>
<svg width="122px" height="122px" viewBox="0 0 122 122" version="1.1" xmlns="http://www.w3.org/2000/svg" xmlns:xlink="http://www.w3.org/1999/xlink">
    <!-- Generator: Sketch 46.2 (44496) - http://www.bohemiancoding.com/sketch -->
    <title>Group 3</title>
    <desc>Created with Sketch.</desc>
    <defs>
        <filter x="-0.6%" y="-0.9%" width="101.3%" height="102.5%" filterUnits="objectBoundingBox" id="filter-1">
            <feOffset dx="0" dy="2" in="SourceAlpha" result="shadowOffsetOuter1"></feOffset>
            <feGaussianBlur stdDeviation="2" in="shadowOffsetOuter1" result="shadowBlurOuter1"></feGaussianBlur>
            <feColorMatrix values="0 0 0 0 0   0 0 0 0 0   0 0 0 0 0  0 0 0 0.1 0" type="matrix" in="shadowBlurOuter1" result="shadowMatrixOuter1"></feColorMatrix>
            <feMerge>
                <feMergeNode in="shadowMatrixOuter1"></feMergeNode>
                <feMergeNode in="SourceGraphic"></feMergeNode>
            </feMerge>
        </filter>
    </defs>
    <g id="Mobile" stroke="none" stroke-width="1" fill="none" fill-rule="evenodd">
        <g id="Home" transform="translate(-769.000000, -4252.000000)">
            <g id="Group-14" filter="url(#filter-1)" transform="translate(275.000000, 4254.000000)">
                <g id="Group-3" transform="translate(498.000000, 0.000000)">
                    <path d="M71.7185471,0 L113.141352,41.422805 L113.141352,0 L71.7185471,0 Z M60.4991952,0 L60.4991952,38.1353204 L113.141352,90.7774773 L113.141352,52.5336549 L60.6076972,0 L60.4991952,0 Z M52.5336549,0 L0,52.5336549 L0,90.7774773 L52.6421569,38.1353204 L52.6421569,0 L52.5336549,0 Z M0,0 L0,41.422805 L41.422805,0 L0,0 Z M60.4991952,84.02666 C74.8501381,85.952258 85.9559994,98.2703481 85.9559994,113.141352 L85.9559994,113.141352 L113.141352,113.141352 L113.141352,101.889574 L60.4991952,49.2474175 L60.4991952,84.02666 Z M0,101.888327 L0,113.141352 L27.1853527,113.141352 C27.1853527,98.2703481 38.291214,85.952258 52.6421569,84.02666 L52.6421569,84.02666 L52.6421569,49.2474175 L0,101.888327 Z M78.0989611,113.141352 C78.0989611,101.270988 68.4410397,91.6130671 56.5706761,91.6130671 C44.7003124,91.6130671 35.042391,101.270988 35.042391,113.141352 L78.0989611,113.141352 Z" id="Fill-2" fill="#37ECBA"></path>
                    <path d="M71.7185471,0 L113.141352,41.422805 L113.141352,0 L71.7185471,0 Z M60.4991952,0 L60.4991952,38.1353204 L113.141352,90.7774773 L113.141352,52.5336549 L60.6076972,0 L60.4991952,0 Z M60.4991952,84.02666 C74.8501381,85.952258 85.9559994,98.2703481 85.9559994,113.141352 L85.9559994,113.141352 L113.141352,113.141352 L113.141352,101.889574 L60.4991952,49.2474175 L60.4991952,84.02666 Z M78.0989611,113.141352 C78.0989611,101.270988 68.4503676,91.6130671 56.580004,91.6130671 L56.580004,113.141352 L78.0989611,113.141352 Z" id="Fill-2-Copy" fill="#224DFF"></path>
                </g>
            </g>
        </g>
    </g>
</svg>