<svg width="356" height="35" viewBox="0 0 356 35" xmlns="http://www.w3.org/2000/svg"><title>Group 8</title><g fill="none" fill-rule="evenodd"><path d="M55.705 26.44c3.641 0 6.704-2.109 8.312-5.222l-3.19-1.683c-.929 1.959-2.686 3.415-5.197 3.415-3.365 0-5.876-2.636-5.876-5.926 0-3.365 2.536-5.976 5.951-5.976 2.335 0 3.942 1.155 4.972 3.063l3.063-1.958c-1.607-2.737-4.595-4.545-8.035-4.545-5.298 0-9.416 3.942-9.416 9.416 0 5.223 3.741 9.417 9.416 9.417zm14.986 0c-2.662 0-6.052-2.109-6.052-6.528 0-4.445 3.264-6.529 6.102-6.529 1.632 0 2.913.603 3.741 1.482v-1.23h3.44V26.19h-3.44v-1.407c-.828.98-2.16 1.658-3.791 1.658zm.678-3.163c1.858 0 3.214-1.532 3.214-3.39s-1.356-3.365-3.214-3.365c-1.909 0-3.365 1.431-3.365 3.365 0 1.933 1.456 3.39 3.365 3.39zm8.206 2.913h3.44v-6.856c0-2.109 1.08-3.013 2.385-3.013 1.532 0 2.31.98 2.31 2.662v7.207h3.49v-7.66c0-3.238-1.782-5.147-4.745-5.147-1.431 0-2.662.628-3.465 1.657v-1.406h-3.415V26.19zm13.152 0h3.44v-6.856c0-2.109 1.08-3.013 2.386-3.013 1.532 0 2.31.98 2.31 2.662v7.207h3.49v-7.66c0-3.238-1.782-5.147-4.745-5.147-1.432 0-2.662.628-3.466 1.657v-1.406h-3.415V26.19zm18.828.25c-2.662 0-6.052-2.109-6.052-6.528 0-4.445 3.265-6.529 6.102-6.529 1.632 0 2.913.603 3.742 1.482v-1.23h3.44V26.19h-3.44v-1.407c-.829.98-2.16 1.658-3.792 1.658zm.678-3.163c1.858 0 3.214-1.532 3.214-3.39s-1.356-3.365-3.214-3.365c-1.908 0-3.365 1.431-3.365 3.365 0 1.933 1.457 3.39 3.365 3.39zm15.337 3.164c-1.657 0-3.013-.628-3.817-1.607v1.356h-3.44V7.859h3.44v7.156c.804-.979 2.085-1.632 3.767-1.632 2.837 0 6.077 2.084 6.077 6.529 0 4.42-3.365 6.529-6.027 6.529zm-.703-3.164c1.909 0 3.365-1.457 3.365-3.39 0-1.934-1.456-3.365-3.365-3.365-1.858 0-3.214 1.507-3.214 3.365 0 1.858 1.356 3.39 3.214 3.39zm7.78 2.913h3.44V13.634h-3.44V26.19zm-.352-15.87c0 1.23.828 2.059 2.059 2.059 1.23 0 2.084-.829 2.084-2.06 0-1.23-.854-2.083-2.084-2.083s-2.06.853-2.06 2.084zm10.34 16.12c3.616.05 5.323-2.36 5.323-4.193 0-2.712-2.435-3.465-4.545-3.892-1.883-.377-2.611-.577-2.611-1.13 0-.552.502-1.03 1.632-1.03s1.984.553 2.31 1.382l3.039-1.281c-.904-1.758-2.512-2.913-5.324-2.913-3.114-.05-5.148 1.833-5.148 3.943 0 2.686 2.26 3.465 4.52 3.867 1.457.276 2.687.477 2.687 1.155 0 .602-.602 1.13-1.732 1.13-1.23 0-2.185-.553-2.637-1.708l-3.29 1.28c.904 2.21 2.738 3.39 5.776 3.39zm17.29 0c-3.314 0-5.524-1.406-7.181-3.289l3.189-2.51c.904 1.556 2.335 2.46 3.967 2.46 1.783 0 2.737-1.155 2.737-2.41 0-1.507-1.833-1.984-3.791-2.587-2.461-.753-5.198-1.708-5.198-5.223 0-2.938 2.561-5.273 6.102-5.273 2.988 0 4.695 1.13 6.177 2.661l-2.888 2.185c-.753-1.13-1.833-1.733-3.264-1.733-1.632 0-2.511.88-2.511 2.034 0 1.407 1.758 1.884 3.716 2.537 2.486.803 5.299 1.908 5.299 5.423 0 2.913-2.31 5.726-6.353 5.726zm6.298-9.717v-3.089h2.134v-2.938l3.44-1.883v4.821h2.361v3.089h-2.36v3.992c0 1.96.25 2.26 2.36 2.26v3.215h-.502c-3.993 0-5.299-1.356-5.299-5.45v-4.017h-2.134zm9.336 9.467h3.44v-5.927c0-2.335.804-3.289 2.637-3.289h2.059v-3.34h-1.256c-1.707 0-2.837.754-3.465 2.06v-2.06h-3.415V26.19zm14.634.25c-2.662 0-6.052-2.109-6.052-6.528 0-4.445 3.265-6.529 6.102-6.529 1.633 0 2.913.603 3.742 1.482v-1.23h3.44V26.19h-3.44v-1.407c-.829.98-2.16 1.658-3.792 1.658zm.678-3.163c1.858 0 3.214-1.532 3.214-3.39s-1.356-3.365-3.214-3.365c-1.908 0-3.365 1.431-3.365 3.365 0 1.933 1.457 3.39 3.365 3.39zm7.83-6.554h2.134v4.018c0 4.093 1.305 5.449 5.298 5.449h.502v-3.215c-2.109 0-2.36-.3-2.36-2.26v-3.992h2.36v-3.089h-2.36v-4.82l-3.44 1.882v2.938H200.7v3.089zm15.086 9.718c-3.918 0-6.63-2.913-6.63-6.53a6.516 6.516 0 0 1 6.53-6.528c3.841 0 6.478 2.888 6.478 6.504v1.255h-9.693c.402 1.381 1.532 2.285 3.34 2.285 1.38 0 2.536-.753 3.088-1.958l2.737 1.632c-1.08 1.959-3.063 3.34-5.85 3.34zm-.076-10.045c-1.456 0-2.561.804-3.088 1.984h6.076c-.452-1.306-1.531-1.984-2.988-1.984zm13.304 10.045c-2.662 0-6.052-2.11-6.052-6.53 0-4.444 3.264-6.528 6.102-6.528 1.632 0 2.913.678 3.741 1.607v-1.356h3.44v12.204c0 3.54-2.234 6.403-6.478 6.403-3.19 0-5.524-1.657-6.529-3.616l3.038-1.707c.653 1.306 1.808 2.134 3.49 2.134 1.859 0 3.04-1.456 3.04-3.088v-1.18c-.83.979-2.16 1.657-3.792 1.657zm.677-3.164c1.859 0 3.215-1.532 3.215-3.39s-1.356-3.365-3.215-3.365c-1.908 0-3.364 1.431-3.364 3.365 0 1.933 1.456 3.39 3.364 3.39zm7.955 2.913h3.44V13.634h-3.44V26.19zm-.351-15.87c0 1.23.828 2.059 2.059 2.059 1.23 0 2.084-.829 2.084-2.06 0-1.23-.854-2.083-2.084-2.083s-2.06.853-2.06 2.084zm11.445 16.12c2.862 0 5.072-1.631 6.052-3.967l-3.064-1.306a3.207 3.207 0 0 1-2.963 2.01c-1.808 0-3.214-1.457-3.214-3.265s1.406-3.264 3.214-3.264c1.33 0 2.486.828 2.963 2.008l3.064-1.305c-.98-2.336-3.19-3.968-6.052-3.968a6.494 6.494 0 0 0-6.504 6.529 6.494 6.494 0 0 0 6.504 6.529zm17.14-.25l-6.127-18.331h3.616l4.269 13.007 4.268-13.007h3.616l-6.127 18.33h-3.515zm14.132.25c-3.917 0-6.63-2.912-6.63-6.528a6.516 6.516 0 0 1 6.53-6.529c3.841 0 6.478 2.888 6.478 6.504v1.255h-9.693c.402 1.381 1.532 2.285 3.34 2.285 1.381 0 2.536-.753 3.089-1.958l2.737 1.632c-1.08 1.959-3.064 3.34-5.851 3.34zm-.075-10.044c-1.457 0-2.562.804-3.09 1.984h6.078c-.452-1.306-1.532-1.984-2.988-1.984zm7.628 9.794h3.44v-6.856c0-2.109 1.08-3.013 2.386-3.013 1.531 0 2.31.98 2.31 2.662v7.207h3.49v-7.66c0-3.238-1.783-5.147-4.746-5.147-1.431 0-2.662.628-3.465 1.657v-1.406h-3.415V26.19zm12.274-9.467h2.134v4.018c0 4.093 1.306 5.449 5.298 5.449h.503v-3.215c-2.11 0-2.36-.3-2.36-2.26v-3.992h2.36v-3.089h-2.36v-4.82l-3.44 1.882v2.938h-2.135v3.089zm14.081 9.718a4.413 4.413 0 0 0 3.466-1.632v1.38h3.415V13.635h-3.44v6.855c0 2.11-1.08 3.014-2.386 3.014-1.532 0-2.31-.98-2.31-2.662v-7.207h-3.49v7.659c0 3.24 1.782 5.148 4.745 5.148zm8.533-.251h3.44v-5.927c0-2.335.803-3.289 2.637-3.289h2.059v-3.34h-1.256c-1.707 0-2.837.754-3.465 2.06v-2.06h-3.415V26.19zm15.212.25c-3.918 0-6.63-2.912-6.63-6.528a6.516 6.516 0 0 1 6.53-6.529c3.841 0 6.478 2.888 6.478 6.504v1.255h-9.693c.402 1.381 1.532 2.285 3.34 2.285 1.38 0 2.536-.753 3.088-1.958l2.737 1.632c-1.08 1.959-3.063 3.34-5.85 3.34zm-.076-10.044c-1.456 0-2.561.804-3.088 1.984h6.076c-.452-1.306-1.531-1.984-2.988-1.984zm12.65 10.045c3.617.05 5.324-2.36 5.324-4.194 0-2.712-2.436-3.465-4.545-3.892-1.883-.377-2.611-.577-2.611-1.13 0-.552.502-1.03 1.632-1.03s1.984.553 2.31 1.382l3.038-1.281c-.904-1.758-2.51-2.913-5.323-2.913-3.114-.05-5.148 1.833-5.148 3.943 0 2.686 2.26 3.465 4.52 3.867 1.457.276 2.687.477 2.687 1.155 0 .602-.603 1.13-1.733 1.13-1.23 0-2.184-.553-2.636-1.708l-3.29 1.28c.904 2.21 2.737 3.39 5.776 3.39z" fill="#322F31"/><path d="M21.827 0l12.607 12.607V0H21.827zm-3.414 0v11.606l16.021 16.022v-11.64L18.446 0h-.033zm-2.424 0L0 15.989v11.639l16.022-16.022V0h-.033zM0 0v12.607L12.607 0H0zm18.413 25.573c4.367.586 7.748 4.335 7.748 8.861h8.273V31.01L18.413 14.988v10.585zM0 31.01v3.425h8.274c0-4.526 3.38-8.275 7.748-8.86V14.987L0 31.01zm23.77 3.425a6.56 6.56 0 0 0-6.553-6.552 6.56 6.56 0 0 0-6.552 6.552H23.77z" fill="#37ECBA"/><path d="M21.827 0l12.607 12.607V0H21.827zm-3.414 0v11.606l16.021 16.022v-11.64L18.446 0h-.033zm0 25.573c4.367.586 7.748 4.335 7.748 8.861h8.273V31.01L18.413 14.988v10.585zm5.356 8.861a6.557 6.557 0 0 0-6.549-6.552v6.552h6.55z" fill="#224DFF"/></g></svg>