<svg width="21" height="20" viewBox="0 0 21 20" xmlns="http://www.w3.org/2000/svg"><title></title><path d="M4.975 20H.906V6.919h4.069V20zM2.963 5.125c-.642 0-1.196-.233-1.663-.7-.467-.467-.7-1.02-.7-1.663 0-.641.233-1.195.7-1.662C1.767.633 2.32.4 2.963.4c.641 0 1.195.233 1.662.7.467.467.7 1.02.7 1.662 0 .642-.233 1.196-.7 1.663-.467.467-1.02.7-1.662.7zM20.2 20h-4.069v-6.387c0-1.05-.087-1.809-.262-2.276-.321-.787-.948-1.18-1.881-1.18-.934 0-1.59.35-1.97 1.05-.29.524-.437 1.297-.437 2.318V20H7.556V6.919h3.894v1.793h.044c.291-.583.758-1.064 1.4-1.443.7-.467 1.516-.7 2.45-.7 1.896 0 3.223.598 3.981 1.793.583.963.875 2.45.875 4.463V20z" fill="#C2C1C1" fill-rule="evenodd"/></svg>