<svg width="122" height="122" viewBox="0 0 122 122" xmlns="http://www.w3.org/2000/svg"><title>Group 3</title><defs><filter x="-.6%" y="-.9%" width="101.3%" height="102.5%" filterUnits="objectBoundingBox" id="a"><feOffset dy="2" in="SourceAlpha" result="shadowOffsetOuter1"/><feGaussianBlur stdDeviation="2" in="shadowOffsetOuter1" result="shadowBlurOuter1"/><feColorMatrix values="0 0 0 0 0 0 0 0 0 0 0 0 0 0 0 0 0 0 0.1 0" in="shadowBlurOuter1" result="shadowMatrixOuter1"/><feMerge><feMergeNode in="shadowMatrixOuter1"/><feMergeNode in="SourceGraphic"/></feMerge></filter></defs><g filter="url(#a)" transform="translate(-494 2)" fill="none" fill-rule="evenodd"><path d="M569.719 0l41.422 41.423V0H569.72zm-11.22 0v38.135l52.642 52.642V52.534L558.608 0h-.109zm-7.965 0L498 52.534v38.243l52.642-52.642V0h-.108zM498 0v41.423L539.423 0H498zm60.5 84.027c14.35 1.925 25.456 14.243 25.456 29.114h27.185V101.89L558.5 49.247v34.78zM498 101.888v11.253h27.185c0-14.87 11.106-27.189 25.457-29.114v-34.78L498 101.888zm78.099 11.253c0-11.87-9.658-21.528-21.528-21.528s-21.529 9.658-21.529 21.528H576.1z" fill="#37ECBA"/><path d="M569.719 0l41.422 41.423V0H569.72zm-11.22 0v38.135l52.642 52.642V52.534L558.608 0h-.109zm0 84.027c14.351 1.925 25.457 14.243 25.457 29.114h27.185V101.89L558.5 49.247v34.78zm17.6 29.114c0-11.87-9.649-21.528-21.519-21.528v21.528h21.519z" fill="#224DFF"/></g></svg>